<svg width="18" height="18" viewBox="0 0 18 18" fill="none" xmlns="http://www.w3.org/2000/svg">
<g clip-path="url(#clip0_604_1599)">
<path d="M9.00026 6.74905H8.99276C7.74776 6.74905 6.74276 7.75405 6.74276 8.99905C6.74276 10.2365 7.74776 11.249 8.99276 11.249L8.98526 11.2483C10.2228 11.2483 11.2353 10.2358 11.2353 8.9983C11.2353 7.7533 10.2228 6.7483 8.98526 6.7483L9.00026 6.74905ZM9.00026 5.24905H8.99276C11.0628 5.24155 12.7428 6.92155 12.7428 8.99155C12.7428 11.0615 11.0628 12.7415 8.99276 12.7415L8.98526 12.7408C6.90776 12.7333 5.23526 11.0608 5.23526 8.9833C5.23526 6.9058 6.90776 5.2333 8.98526 5.2333L9.00026 5.24905ZM13.8753 5.06155C13.8753 5.57905 13.4553 5.99905 12.9378 5.99905C12.4128 5.99905 12.0003 5.57905 12.0003 5.06155C11.9928 4.53655 12.4128 4.11655 12.9303 4.11655C13.4478 4.10905 13.8678 4.52905 13.8678 5.04655L13.8753 5.06155ZM9.00026 2.99905C7.14476 2.99905 6.84176 2.99905 5.97851 3.03655C5.38601 3.05905 4.99601 3.14155 4.63001 3.28405C4.30001 3.40405 4.06751 3.55405 3.82001 3.80905H3.81251C3.57251 4.03405 3.39251 4.31155 3.28001 4.61905C3.13751 4.98655 3.05501 5.37655 3.02501 5.96755C2.98001 6.79255 2.98001 7.07755 2.98001 8.98255C2.98001 10.838 2.98001 11.141 3.01751 12.0043C3.04001 12.5893 3.12251 12.9868 3.26501 13.3468C3.39251 13.6693 3.54251 13.9018 3.79151 14.1568C4.03901 14.4043 4.27901 14.5543 4.60151 14.6818C4.96901 14.8243 5.36651 14.8993 5.95151 14.9293C6.77651 14.9668 7.06901 14.9668 8.97326 14.9668C10.8288 14.9668 11.1318 14.9593 11.995 14.9218C12.5815 14.8918 12.97 14.8093 13.3375 14.6668C13.66 14.5393 13.8925 14.3893 14.1475 14.1343C14.395 13.8793 14.545 13.6468 14.6725 13.3243C14.815 12.9493 14.89 12.5593 14.92 11.9743C14.9575 11.1418 14.9575 10.8568 14.9575 8.95255C14.9575 7.09705 14.95 6.79405 14.9125 5.9308C14.8825 5.3443 14.8 4.9483 14.6575 4.5823C14.5375 4.2748 14.3575 3.9973 14.125 3.7723L14.1175 3.7648C13.885 3.5248 13.6075 3.3448 13.3075 3.2323C12.94 3.0898 12.5425 3.0073 11.9575 2.9773C11.125 2.9323 10.8325 2.9323 8.93501 2.9323L9.00026 2.99905ZM9.00026 1.49905C11.0328 1.49905 11.2878 1.50655 12.0918 1.54405C12.8868 1.58155 13.4343 1.70155 13.9068 1.88905C14.4018 2.07655 14.8143 2.33155 15.2343 2.75155L15.2268 2.74405C15.6018 3.11155 15.9018 3.56905 16.0893 4.07155C16.2693 4.54405 16.3968 5.09155 16.4343 5.88655C16.4643 6.68155 16.4793 6.93655 16.4793 8.97655C16.4793 11.009 16.4718 11.264 16.4343 12.0665C16.3968 12.8615 16.2693 13.409 16.0818 13.8815V13.874C15.8868 14.369 15.5943 14.8265 15.2118 15.2015V15.194C14.8293 15.569 14.3793 15.869 13.8768 16.0565C13.3968 16.2365 12.8493 16.364 12.0543 16.4015C11.2518 16.4315 10.9968 16.4465 8.96276 16.4465C6.92276 16.4465 6.66776 16.439 5.86526 16.4015C5.06276 16.364 4.52276 16.2365 4.04426 16.049C3.54176 15.854 3.08426 15.5615 2.70926 15.179L2.70176 15.1715C2.31926 14.7965 2.01926 14.339 1.83176 13.8365C1.64426 13.3565 1.51676 12.809 1.47926 12.014C1.44176 11.2115 1.42676 10.9565 1.42676 8.91655C1.42676 6.87655 1.43426 6.62155 1.47176 5.81905C1.50926 5.01655 1.62926 4.47655 1.81676 3.99805V3.99055C2.00426 3.48805 2.29676 3.03055 2.67926 2.65555V2.64805C3.04676 2.26555 3.50426 1.96555 4.00676 1.77805C4.47926 1.59055 5.02826 1.46305 5.82776 1.42555C6.62276 1.38805 6.87776 1.37305 8.91776 1.37305L9.00026 1.49905Z" fill="#1F2022"/>
</g>
<defs>
<clipPath id="clip0_604_1599">
<rect width="18" height="18" fill="white"/>
</clipPath>
</defs>
</svg>
