<svg width="18" height="18" viewBox="0 0 18 18" fill="none" xmlns="http://www.w3.org/2000/svg">
<g clip-path="url(#clip0_604_1593)">
<path d="M16.6216 4.23696V4.22946C16.0441 4.47696 15.4366 4.64196 14.8141 4.71696V4.70946C15.4666 4.31196 15.9541 3.69696 16.1866 2.96946C15.5716 3.32946 14.8966 3.59196 14.1916 3.72696C13.0066 2.45946 11.0191 2.39196 9.75162 3.57696C8.92662 4.34196 8.58162 5.48946 8.83662 6.58446L8.82912 6.57696C6.30012 6.44946 3.95412 5.25696 2.36262 3.29946V3.29196C2.07762 3.76446 1.93512 4.31196 1.93512 4.86696C1.93512 5.95446 2.48262 6.91446 3.33012 7.47696L3.32262 7.46946C2.82012 7.44696 2.33262 7.31196 1.89762 7.07196V7.10946L1.89012 7.10196C1.89012 8.59446 2.94012 9.87696 4.40262 10.177V10.1695C3.93762 10.2895 3.45012 10.312 2.98512 10.222L2.97762 10.2145C3.38262 11.4895 4.56012 12.367 5.90262 12.3895H5.89512C4.57512 13.417 2.91012 13.882 1.24512 13.687C2.67762 14.602 4.34262 15.097 6.05262 15.097C11.8224 15.097 14.9776 10.312 14.9776 6.17196C14.9776 6.03696 14.9701 5.89446 14.9626 5.76696V5.75946C15.5701 5.30946 16.1026 4.76196 16.5226 4.13196L16.6216 4.23696Z" fill="#1F2022"/>
</g>
<defs>
<clipPath id="clip0_604_1593">
<rect width="18" height="18" fill="white"/>
</clipPath>
</defs>
</svg>
